<?xml version="1.0" encoding="UTF-8" standalone="no"?>
<!-- Created with Inkscape (http://www.inkscape.org/) -->

<svg
   width="125"
   height="125"
   viewBox="0 0 33.072917 33.072916"
   version="1.1"
   id="svg6132"
   xml:space="preserve"
   sodipodi:docname="graphene.svg"
   inkscape:version="1.2.1 (9c6d41e410, 2022-07-14)"
   xmlns:inkscape="http://www.inkscape.org/namespaces/inkscape"
   xmlns:sodipodi="http://sodipodi.sourceforge.net/DTD/sodipodi-0.dtd"
   xmlns="http://www.w3.org/2000/svg"
   xmlns:svg="http://www.w3.org/2000/svg"><sodipodi:namedview
     id="namedview6134"
     pagecolor="#505050"
     bordercolor="#eeeeee"
     borderopacity="1"
     inkscape:showpageshadow="0"
     inkscape:pageopacity="0"
     inkscape:pagecheckerboard="0"
     inkscape:deskcolor="#505050"
     inkscape:document-units="px"
     showgrid="false"
     inkscape:zoom="1.5126683"
     inkscape:cx="123.6226"
     inkscape:cy="125.9364"
     inkscape:window-width="1920"
     inkscape:window-height="1020"
     inkscape:window-x="0"
     inkscape:window-y="28"
     inkscape:window-maximized="1"
     inkscape:current-layer="layer1" /><defs
     id="defs6129" /><g
     inkscape:label="Layer 1"
     inkscape:groupmode="layer"
     id="layer1"><g
       style="shape-rendering:geometricPrecision;text-rendering:geometricPrecision"
       id="g6625"
       transform="matrix(0.01150797,0,0,0.01150797,1.2576505,1.3229207)"><path
         d="M 771.67168,798 1152.672,581 c -7.0001,-21 -12.0001,-43 -12.0001,-67 0,-92 67.0001,-168 155.0001,-184 V 0 h 64 v 330 c 88,16 155,92 155,184 0,24 -5,46 -13,67 l 382,217 c 14,-16 31,-30 50,-42 80,-46 180,-26 237,42 l 286,-165 32,56 -286,165 c 31,84 -2,180 -82,226 -18,10 -36,17 -55,21 v 442 c 19,4 37,11 55,21 80,46 113,142 82,226 l 286,165 -32,56 -286,-165 c -57,68 -157,88 -237,42 -19,-12 -36,-26 -50,-42 -127,72 -254,145 -382,217 8,21 13,43 13,67 0,92 -67,168 -155,184 v 330 h -64 v -330 c -88,-16 -155.0001,-92 -155.0001,-184 0,-24 5,-46 12.0001,-67 L 771.67168,1846 c -14,16 -31,30 -50,42 -80,46 -180,26 -237,-42 l -285.99999,165 -32,-56 285.99999,-165 c -31,-84 2,-180 82,-226 18,-10 36,-17 55,-21 v -442 c -19,-4 -37,-11 -55,-21 -80,-46 -113,-142 -82,-226 l -285.99999,-165 32,-56 285.99999,165 c 57,-68 157,-88 237,-42 19,12 36,26 50,42 z M 1851.672,1790 c -18,-50 -15,-108 14,-157 30,-52 81,-84 136,-92 v -438 c -55,-8 -106,-40 -136,-92 -29,-49 -32,-107 -14,-157 l -382,-218 c -35,40 -85,65 -142,65 -57,0 -107,-25 -142,-65 L 803.67168,854 c 18,50 15,108 -14,157 -30,52 -81,84 -136,92 v 438 c 55,8 106,40 136,92 29,49 32,107 14,157 l 382.00032,218 c 35,-40 85,-65 142,-65 57,0 107,25 142,65 z"
         fill="#000000"
         fill-rule="nonzero"
         transform="translate(0,1.02e-4)"
         id="path6616" /></g></g></svg>
